PathFileType	4	(X/Y/Z)	9_coords_data.trc
DataRate	CameraRate	NumFrames	NumMarkers	Units	OrigDataRate	OrigDataStartFrame	OrigNumFrames
30.0	30.0	5	21	m	30.0	39	48
Frame#	Time	THUMB_TIP	THUMB_IP	THUMB_MCP	THUMB_CMC	INDEX_TIP	INDEX_DIP	INDEX_PIP	INDEX_MCP	MIDDLE_TIP	MIDDLE_DIP	MIDDLE_PIP	MIDDLE_MCP	RING_TIP	RING_DIP	RING_PIP	RING_MCP	PINKY_TIP	PINKY_DIP	PINKY_PIP	PINKY_MCP	WRIST
X1	Y1	Z1	X2	Y2	Z2	X3	Y3	Z3	X4	Y4	Z4	X5	Y5	Z5	X6	Y6	Z6	X7	Y7	Z7	X8	Y8	Z8	X9	Y9	Z9	X10	Y10	Z10	X11	Y11	Z11	X12	Y12	Z12	X13	Y13	Z13	X14	Y14	Z14	X15	Y15	Z15	X16	Y16	Z16	X17	Y17	Z17	X18	Y18	Z18	X19	Y19	Z19	X20	Y20	Z20	X21	Y21	Z21
37	1.2666666666666608	0.539712894593047	-0.023308126336419432	-0.14652351636124694	0.5223094225348632	-0.029293838057033672	-0.13276523102048887	0.49994042365313834	-0.033412522942887324	-0.11151707053915716	0.4838347635646054	-0.02521046533877136	-0.0707344276114188	0.5663264117582716	0.04355807916608467	-0.1502196407566686	0.5484198088632831	0.041904756648419195	-0.14807019957027323	0.5241880891163913	0.037685113389390845	-0.14287133412917685	0.49938964751078835	0.012277783627515082	-0.1193523846988811	0.5793500911656384	0.05558614262856976	-0.1273017104428037	0.561383590642039	0.055046775647484614	-0.12508496909676925	0.5327289385020277	0.053467649468961764	-0.12000295952896467	0.49995791895081876	0.02846380813553251	-0.10276880398983324	0.5807040443539784	0.05105589609903394	-0.0982137143156373	0.5631192668455711	0.05410839344985929	-0.09567248235003034	0.5384745986408643	0.056382042299493174	-0.09290646915619472	0.5038504856030438	0.03798516156723408	-0.08303497435210005	0.5734099873689023	0.0425755343178531	-0.06730234871484275	0.5584054974178878	0.04980260975888817	-0.06334827968667756	0.537942342789502	0.05324708303446457	-0.0601534517556902	0.506358696151682	0.03595119428808957	-0.05810187954630086	0.46228308100186083	-0.023011742144276925	-0.051989820119430985
38	1.299999999999994	0.5400753611213576	-0.02255142566843682	-0.14616447645640085	0.5226394860827346	-0.02866989632456529	-0.1325059780591531	0.5001725584240606	-0.033101209201170545	-0.11142469186097392	0.4839068385720147	-0.025121049442210386	-0.07066155400437335	0.5666766154760038	0.04326171130098477	-0.14954735436198696	0.548735951131012	0.04177264310426776	-0.14756865813318665	0.5244271857335929	0.03774514177063515	-0.14258137521953262	0.49942471168496677	0.012298821773383928	-0.1193220290540602	0.579613539763336	0.0551031738655573	-0.12693466464280867	0.5616332307178902	0.05469723948876204	-0.1248030680787292	0.5329497312448793	0.05331076940506796	-0.11982872302748748	0.49996945527340847	0.02848077886656719	-0.10274303054214817	0.5807690180986032	0.05051349332141941	-0.09798991473188523	0.563207593153255	0.05374777069627934	-0.09551285927199438	0.5385759323575559	0.05623369298317893	-0.09281444198974986	0.5038459548214353	0.03799592910423999	-0.08301987905735486	0.57329155758519	0.04208737777218774	-0.06753353193211598	0.558393723478833	0.04953653964794624	-0.063588341659365	0.5379609898270012	0.05314269558315232	-0.06037725868250421	0.5063190167738878	0.035976659617010465	-0.05814204023341174	0.4622830810018609	-0.023011742144276925	-0.051989820119430985
40	1.3333333333333337	0.540382662020684	-0.021781311593753738	-0.14584331854443877	0.5229285511427673	-0.028053610212537383	-0.13227820580999383	0.5003823993366003	-0.0327919831571063	-0.11134882787916545	0.4839639176457971	-0.025023521259091908	-0.07060604374862456	0.5670239780509615	0.04300383682695019	-0.14884117112868256	0.549051670574837	0.04167865824608186	-0.14704115287531838	0.524670684461462	0.03783846877813568	-0.14226304718480653	0.4994693852130821	0.012342131775047283	-0.11927462815220347	0.579864175497891	0.05469551626429625	-0.12656805667582993	0.5618732834802451	0.05439437093350752	-0.12450963108835977	0.53316509868726	0.0531706335272395	-0.11963601408942404	0.499977866296692	0.028508586475443742	-0.10270855230481357	0.5808278275163092	0.050051836634299574	-0.09777286524932716	0.5632868599933307	0.053440425306179096	-0.09535792732660109	0.5386676666603869	0.0561075780667073	-0.0927194439010045	0.503845379706328	0.038011208354789106	-0.08299059152578792	0.573152680812446	0.04165691565793184	-0.06777515909564535	0.5583579701969673	0.04931959440646161	-0.06385088945645456	0.5379544693920066	0.05307127377213294	-0.060620707443136634	0.5062720927020343	0.036006678290725014	-0.058189650197695064	0.4622830810018609	-0.023011742144276925	-0.051989820119430985
41	1.3666666666666671	0.5407001829905358	-0.020969955264035223	-0.14548647193997288	0.5232287325462085	-0.02740467514232725	-0.1320201138777749	0.5006026314599148	-0.032485172880307944	-0.11125793450355703	0.48403038394769793	-0.024918326809009628	-0.07053946875486883	0.5674247296130741	0.04269171139656858	-0.14807926436615404	0.5494223321755669	0.04154338240276301	-0.146468355608955	0.5249665655046358	0.03790983150719196	-0.14191614543956788	0.4995273433875641	0.0123905069602811	-0.11921711139078672	0.5801429473229649	0.05426738608676274	-0.1261581410705198	0.5621422730962738	0.05406931615903576	-0.12417408066612945	0.533408017043004	0.05301944083592236	-0.11941489577047248	0.49999750372005325	0.028541116204421235	-0.10266087703669469	0.580894045808831	0.04958838240407604	-0.09751437054977474	0.5633738868113971	0.05312855537840211	-0.09516677518078775	0.5387681213046197	0.05598266624654935	-0.09259961060137123	0.5038504625863638	0.038030920600751306	-0.08294493443362905	0.5730099906161207	0.04125031743215557	-0.06796684631701944	0.5583172609783212	0.049119573386391946	-0.06406832011892305	0.5379426284292429	0.05301474216703095	-0.06082578597717969	0.5062278163386925	0.03603658440387403	-0.058218813781231726	0.46228308100186083	-0.023011742144276925	-0.051989820119430985
42	1.4000000000000006	0.5410476452765958	-0.020121871342271946	-0.14507286502569405	0.5235548607335689	-0.026726270543009023	-0.13171680272692732	0.5008436444316464	-0.03218601655786468	-0.1111446898665388	0.48410903976991726	-0.024808789650954233	-0.07045784272917033	0.567879610761887	0.04230692909092981	-0.14726577190974444	0.5498492405425104	0.04135140482195998	-0.14585413345616338	0.5253163153118008	0.03794785767209574	-0.14154585312370283	0.4995927378837002	0.012442888957400089	-0.11915321528974243	0.5804461875686607	0.05381091898720658	-0.12570500309628851	0.5624365498156826	0.05371666405538622	-0.12379605992942078	0.5336746058735808	0.052857798903567454	-0.1191676172839522	0.5000255756743903	0.028579642732087462	-0.10260072799938236	0.5809645246191383	0.049119455437049764	-0.09721183559812807	0.5634658299701898	0.05280993840104686	-0.09493674855027445	0.5388749264096324	0.055859994044882955	-0.09245388696636003	0.5038581740454003	0.03805740256377632	-0.08288228185442192	0.5728662609123739	0.0408679404373955	-0.06809610360828522	0.5582734913522113	0.048934940589967724	-0.06422640270222224	0.5379275502388077	0.052973236533707	-0.060978808965207354	0.5061873026126147	0.036066283560627466	-0.058222893002405574	0.4622830810018609	-0.023011742144276925	-0.051989820119430985
